name C:/MyDriveSym/Projects/mobilecap/Data\Session20210825_0002\mocap\ForceDataProcessed\walkingTS1_forces.mot
datacolumns 19
datarows 24
range 0.74950000 0.76100000
endheader 
time	R_ground_force_vx	R_ground_force_vy	R_ground_force_vz	R_ground_force_px	R_ground_force_py	R_ground_force_pz	R_ground_torque_x	R_ground_torque_y	R_ground_torque_z	L_ground_force_vx	L_ground_force_vy	L_ground_force_vz	L_ground_force_px	L_ground_force_py	L_ground_force_pz	L_ground_torque_x	L_ground_torque_y	L_ground_torque_z	
          0.74950000	          0.00000000	          0.00000000	          0.00000000	          0.39599900	          0.00000000	         -0.12635100	          0.00000000	          0.00000000	          0.00000000	        -91.62403300	        656.04885700	         36.91568500	          0.85258800	          0.00600000	         -0.29993300	          0.00000000	         -0.63081500	          0.00000000	
          0.75000000	          0.00000000	          0.00000000	          0.00000000	          0.39719000	          0.00000000	         -0.12637100	          0.00000000	          0.00000000	          0.00000000	        -91.38263700	        655.83324500	         36.89756700	          0.85273300	          0.00600000	         -0.29995000	          0.00000000	         -0.63176600	          0.00000000	
          0.75050000	          0.00000000	          0.00000000	          0.00000000	          0.39838000	          0.00000000	         -0.12639200	          0.00000000	          0.00000000	          0.00000000	        -91.14018900	        655.61089100	         36.87868800	          0.85287800	          0.00600000	         -0.29996700	          0.00000000	         -0.63265100	          0.00000000	
          0.75100000	          0.00000000	          0.00000000	          0.00000000	          0.39957000	          0.00000000	         -0.12641300	          0.00000000	          0.00000000	          0.00000000	        -90.89670900	        655.38186800	         36.85905100	          0.85302200	          0.00600000	         -0.29998400	          0.00000000	         -0.63347200	          0.00000000	
          0.75150000	          0.00000000	          0.00000000	          0.00000000	          0.40076100	          0.00000000	         -0.12643300	          0.00000000	          0.00000000	          0.00000000	        -90.65221700	        655.14624500	         36.83866400	          0.85316700	          0.00600000	         -0.30000100	          0.00000000	         -0.63422700	          0.00000000	
          0.75200000	          0.00000000	          0.00000000	          0.00000000	          0.40195100	          0.00000000	         -0.12645400	          0.00000000	          0.00000000	          0.00000000	        -90.40673300	        654.90409400	         36.81753200	          0.85331200	          0.00600000	         -0.30001800	          0.00000000	         -0.63491700	          0.00000000	
          0.75250000	          0.00000000	          0.00000000	          0.00000000	          0.40314100	          0.00000000	         -0.12647500	          0.00000000	          0.00000000	          0.00000000	        -90.16027600	        654.65548600	         36.79565900	          0.85345800	          0.00600000	         -0.30003500	          0.00000000	         -0.63554100	          0.00000000	
          0.75300000	          0.00000000	          0.00000000	          0.00000000	          0.40433200	          0.00000000	         -0.12649500	          0.00000000	          0.00000000	          0.00000000	        -89.91286600	        654.40049400	         36.77305200	          0.85360300	          0.00600000	         -0.30005200	          0.00000000	         -0.63610000	          0.00000000	
          0.75350000	          0.00000000	          0.00000000	          0.00000000	          0.40552200	          0.00000000	         -0.12651600	          0.00000000	          0.00000000	          0.00000000	        -89.66452100	        654.13918900	         36.74971500	          0.85374800	          0.00600000	         -0.30006900	          0.00000000	         -0.63659200	          0.00000000	
          0.75400000	          0.00000000	          0.00000000	          0.00000000	          0.40671200	          0.00000000	         -0.12653700	          0.00000000	          0.00000000	          0.00000000	        -89.41526100	        653.87164400	         36.72565300	          0.85389300	          0.00600000	         -0.30008700	          0.00000000	         -0.63701700	          0.00000000	
          0.75450000	          0.00000000	          0.00000000	          0.00000000	          0.40790200	          0.00000000	         -0.12655700	          0.00000000	          0.00000000	          0.00000000	        -89.16510400	        653.59792900	         36.70087200	          0.85403900	          0.00600000	         -0.30010400	          0.00000000	         -0.63737700	          0.00000000	
          0.75500000	          0.00000000	          0.00000000	          0.00000000	          0.40909300	          0.00000000	         -0.12657800	          0.00000000	          0.00000000	          0.00000000	        -88.91407000	        653.31811800	         36.67537500	          0.85418400	          0.00600000	         -0.30012100	          0.00000000	         -0.63766900	          0.00000000	
          0.75550000	          0.00000000	          0.00000000	          0.00000000	          0.41028300	          0.00000000	         -0.12659900	          0.00000000	          0.00000000	          0.00000000	        -88.66217600	        653.03228300	         36.64916700	          0.85433000	          0.00600000	         -0.30013900	          0.00000000	         -0.63789500	          0.00000000	
          0.75600000	          0.00000000	          0.00000000	          0.00000000	          0.41147300	          0.00000000	         -0.12661900	          0.00000000	          0.00000000	          0.00000000	        -88.40944100	        652.74049700	         36.62225300	          0.85447600	          0.00600000	         -0.30015600	          0.00000000	         -0.63805300	          0.00000000	
          0.75650000	          0.00000000	          0.00000000	          0.00000000	          0.41266400	          0.00000000	         -0.12664000	          0.00000000	          0.00000000	          0.00000000	        -88.15588400	        652.44283200	         36.59463700	          0.85462100	          0.00600000	         -0.30017400	          0.00000000	         -0.63814400	          0.00000000	
          0.75700000	          0.00000000	          0.00000000	          0.00000000	          0.41385400	          0.00000000	         -0.12666100	          0.00000000	          0.00000000	          0.00000000	        -87.90152100	        652.13936100	         36.56632200	          0.85476700	          0.00600000	         -0.30019200	          0.00000000	         -0.63816700	          0.00000000	
          0.75750000	          0.00000000	          0.00000000	          0.00000000	          0.41504400	          0.00000000	         -0.12668100	          0.00000000	          0.00000000	          0.00000000	        -87.64637200	        651.83015700	         36.53731400	          0.85491300	          0.00600000	         -0.30020900	          0.00000000	         -0.63812300	          0.00000000	
          0.75800000	          0.00000000	          0.00000000	          0.00000000	          0.41623500	          0.00000000	         -0.12670200	          0.00000000	          0.00000000	          0.00000000	        -87.39045300	        651.51529200	         36.50761500	          0.85505900	          0.00600000	         -0.30022700	          0.00000000	         -0.63801000	          0.00000000	
          0.75850000	          0.00000000	          0.00000000	          0.00000000	          0.41742500	          0.00000000	         -0.12672300	          0.00000000	          0.00000000	          0.00000000	        -87.13378200	        651.19484000	         36.47723000	          0.85520600	          0.00600000	         -0.30024500	          0.00000000	         -0.63783000	          0.00000000	
          0.75900000	          0.00000000	          0.00000000	          0.00000000	          0.41861500	          0.00000000	         -0.12674300	          0.00000000	          0.00000000	          0.00000000	        -86.87637700	        650.86887300	         36.44616200	          0.85535200	          0.00600000	         -0.30026300	          0.00000000	         -0.63758100	          0.00000000	
          0.75950000	          0.00000000	          0.00000000	          0.00000000	          0.41980600	          0.00000000	         -0.12676400	          0.00000000	          0.00000000	          0.00000000	        -86.61825500	        650.53746400	         36.41441500	          0.85549800	          0.00600000	         -0.30028100	          0.00000000	         -0.63726300	          0.00000000	
          0.76000000	          0.00000000	          0.00000000	          0.00000000	          0.42099600	          0.00000000	         -0.12678500	          0.00000000	          0.00000000	          0.00000000	        -86.35943200	        650.20068700	         36.38199200	          0.85564500	          0.00600000	         -0.30029900	          0.00000000	         -0.63687600	          0.00000000	
          0.76050000	          0.00000000	          0.00000000	          0.00000000	          0.42218600	          0.00000000	         -0.12680500	          0.00000000	          0.00000000	          0.00000000	        -86.09992600	        649.85861300	         36.34889700	          0.85579100	          0.00600000	         -0.30031700	          0.00000000	         -0.63642100	          0.00000000	
          0.76100000	          0.00000000	          0.00000000	          0.00000000	          0.42337700	          0.00000000	         -0.12682600	          0.00000000	          0.00000000	          0.00000000	        -85.83975400	        649.51131700	         36.31513200	          0.85593800	          0.00600000	         -0.30033500	          0.00000000	         -0.63589600	          0.00000000	
